<?xml version="1.0" encoding="utf-8"?>
<!-- Generator: Adobe Illustrator 16.0.0, SVG Export Plug-In . SVG Version: 6.00 Build 0)  -->
<!DOCTYPE svg PUBLIC "-//W3C//DTD SVG 1.1//EN" "http://www.w3.org/Graphics/SVG/1.1/DTD/svg11.dtd">
<svg version="1.1" id="Layer_1" xmlns="http://www.w3.org/2000/svg" xmlns:xlink="http://www.w3.org/1999/xlink" x="0px" y="0px"
	 width="360px" height="360px" viewBox="0 0 360 360" enable-background="new 0 0 360 360" xml:space="preserve">
<g>
	<path fill="#666766" stroke="#FFFFFF" stroke-width="5" stroke-miterlimit="10" d="M101.26,210.964
		c-1.112-1.112-2.708-1.768-4.224-1.714c-1.58,0.022-3.083,0.684-4.171,1.83l-16.573,17.55c-2.17,2.306-2.118,5.915,0.123,8.155
		l64.349,64.35c1.094,1.1,2.586,1.714,4.136,1.714c0.029,0,0.059,0,0.087,0c1.58-0.022,3.083-0.685,4.171-1.831l16.566-17.55
		c2.176-2.305,2.124-5.914-0.117-8.155l-5.96-5.961l3.206-1.603h62.968c1.638,0,3.206-0.685,4.311-1.896l56.148-61.255
		c5.172-5.64,6.353-13.729,3.013-20.604c-3.69-7.616-11.828-11.67-21.819-10.962c-1.398,0.105-2.714,0.708-3.704,1.696
		l-32.718,32.718c-3.037-2.491-6.862-4.048-11.081-4.048h-20.978l-9.985-9.985c-1.095-1.1-2.58-1.714-4.137-1.714h-40.949
		c-1.369,0-2.697,0.479-3.75,1.351l-30.993,25.828L101.26,210.964z M144.777,288.604l-56.071-56.072l8.535-9.044l56.072,56.072
		L144.777,288.604z M146.041,203.399h36.41l9.985,9.986c1.094,1.1,2.581,1.714,4.136,1.714h23.399c2.369,0,4.388,1.427,5.312,3.458
		c0,0.005,0,0.005,0.007,0.011c0.094,0.205,0.11,0.409,0.182,0.614c0.152,0.475,0.269,0.96,0.298,1.475
		c0.012,0.216,0,0.432-0.011,0.649c-0.023,0.397-0.13,0.76-0.229,1.128c-0.164,0.539-0.333,1.072-0.655,1.517
		c-0.012,0.011-0.018,0.028-0.029,0.04c-1.311,1.79-3.708,2.809-5.879,2.809h-39.944v11.699h39.944h1.005
		c6.424,0,11.993-3.504,15.053-8.669c0.034-0.053,0.059-0.11,0.088-0.164c0.457-0.784,0.871-1.592,1.198-2.445
		c0.165-0.403,0.265-0.836,0.394-1.258c0.176-0.591,0.373-1.164,0.49-1.778c0.013-0.07,0.048-0.14,0.059-0.211
		c0.152-0.842,0.192-1.691,0.217-2.533c0.007-0.163,0.047-0.32,0.047-0.485c0-0.011-0.006-0.023-0.006-0.035
		c0-1.041-0.1-2.076-0.286-3.1l33.157-33.164c4.048,0.14,7.049,1.714,8.383,4.451c1.228,2.539,0.796,5.513-1.11,7.595
		l-54.399,59.347h-61.782c-0.906,0-1.808,0.211-2.615,0.615l-7.926,3.966l-33.438-33.438L146.041,203.399z"/>
	<path fill="#666766" stroke="#FFFFFF" stroke-width="5" stroke-miterlimit="10" d="M250.199,109.801
		c0-38.709-31.49-70.199-70.199-70.199s-70.199,31.49-70.199,70.199S141.291,180,180,180S250.199,148.51,250.199,109.801z
		 M121.5,109.801c0-32.256,26.243-58.5,58.5-58.5c32.256,0,58.499,26.243,58.499,58.5c0,32.256-26.243,58.5-58.499,58.5
		C147.744,168.3,121.5,142.057,121.5,109.801z"/>
	<path fill="#666766" stroke="#FFFFFF" stroke-width="5" stroke-miterlimit="10" d="M22.666,211.058
		c6.88,80.787,74.797,144.44,157.334,144.44c87.094,0,157.948-70.854,157.948-157.948h-11.7
		c0,80.643-65.605,146.248-146.248,146.248c-75.622,0-138.018-57.691-145.494-131.372l12.659,12.66l8.272-8.272l-23.4-23.399
		c-2.288-2.288-5.984-2.288-8.272,0l-23.4,23.399l8.272,8.272L22.666,211.058z"/>
	<path fill="#666766" stroke="#FFFFFF" stroke-width="5" stroke-miterlimit="10" d="M337.369,148.907
		C330.513,67.348,262.776,4.502,180,4.502c-85.286,0-154.62,66.712-157.832,151.876l11.688,0.444
		C36.834,77.972,101.032,16.202,180,16.202c75.879,0,138.088,57.037,145.481,131.36l-12.646-12.647l-8.272,8.272l23.399,23.4
		c1.141,1.14,2.639,1.714,4.137,1.714s2.994-0.574,4.136-1.714l23.399-23.4l-8.271-8.272L337.369,148.907z"/>
</g>
<g>
	<path fill="#EF4223" d="M177.944,111.159H161.88l26.93,28.505l2.992-3.149l-20.159-21.103h6.457
		c6.458-0.158,11.811-5.197,12.756-11.812h9.135v-4.252h-9.135c-0.473-2.835-1.574-5.512-3.465-7.56h12.6v-4.252H163.77v4.252
		h14.174c4.252,0,7.875,3.15,8.819,7.56H163.77v4.252h22.993C185.818,107.852,182.196,111.159,177.944,111.159z"/>
</g>
</svg>
